<?xml version="1.0" encoding="utf-8"?>
<!-- Generator: Adobe Illustrator 15.0.0, SVG Export Plug-In . SVG Version: 6.00 Build 0)  -->
<!DOCTYPE svg PUBLIC "-//W3C//DTD SVG 1.1//EN" "http://www.w3.org/Graphics/SVG/1.1/DTD/svg11.dtd">
<svg version="1.1" id="Laag_1" xmlns="http://www.w3.org/2000/svg" xmlns:xlink="http://www.w3.org/1999/xlink" x="0px" y="0px"
	 width="566.93px" height="141.73px" viewBox="0 0 566.93 141.73" enable-background="new 0 0 566.93 141.73" xml:space="preserve">
<path fill="#F07E24" d="M477.128,120.188C476.952,120.188,476.952,120.188,477.128,120.188
	C476.952,120.188,476.952,120.188,477.128,120.188C476.952,120.188,476.952,120.013,477.128,120.188l-0.702-0.704l0.176-0.176
	h-0.353l-0.528-0.528l0,0l0,0l0,0l0,0l0.178-0.176c0,0,0.176-0.177,0.176-0.353l-0.176-0.353c0-0.177-0.178-0.177-0.178-0.177
	c0-0.176-0.177-0.352-0.177-0.352c0-0.176,0.177-0.176,0.177-0.353s0-0.177-0.177-0.353c0,0,0,0,0-0.176v-0.354l0,0
	c0-0.352-0.176-0.526-0.352-0.526c-0.176-0.177-0.352-0.177-0.527-0.177l0.177-0.176l0.352-0.88l-0.879-0.177
	c-0.176,0-0.354,0-0.529-0.176h0.176c0.354-0.177,0.882-0.177,1.232-0.527l1.232-1.056l-1.584-0.178c-0.703,0-1.408,0-2.111-0.176
	l0.527-0.352l-1.761-0.177c-6.334-0.527-13.196-0.527-20.059-0.527c-5.279,0-10.559,0-15.662,0c-1.055,0-2.287,0-3.342,0l0,0l0,0
	c-0.881,0-1.937,0-2.816,0c-0.526,0-0.879,0-1.408,0l0,0l0,0c-0.702,0-1.582-0.177-2.286-0.177c-0.177,0-0.527,0-0.703,0
	c-1.408,0.177-2.992,0.177-4.398,0.177c-1.76,0-3.344,0-5.104,0c-1.761,0-3.521,0-5.455,0.352v0.528
	c-7.743,0.176-15.485,0.176-23.227,0.176l0.879-1.23l-1.936,0.352l0,0c-0.176,0-0.352,0-0.704,0c-0.176,0-0.176,0-0.353,0
	c-0.176,0-0.352,0.176-0.527,0.353l-0.352,0.527h-0.177l-0.176-0.88h-0.176c-0.177,0-0.177,0-0.353,0h-0.176l0,0
	c-0.176,0-0.352,0-0.527,0h-0.177l-0.176,0.176l-0.176,0.177c0,0.177-0.177,0.177-0.177,0.353l0,0c-2.99,0-6.158,0-9.149,0.176
	l-0.176-0.88c-0.88,0-1.937,0-2.815,0c-4.398,0-9.326,0.176-13.725,0.176c-2.111,0-4.047,0-5.982-0.176l0,0l0,0
	c-2.64,0.353-5.807,0.353-8.798,0.353c-0.353,0-0.528,0-0.88,0c-7.038,0-13.725,0.353-20.412,0.527c-2.814,0-5.807,0-8.622,0.528
	v0.703c-1.056,0-2.11,0-3.167,0v-0.703c-2.111,0-4.223-0.176-6.511-0.176c-6.687,0-13.726,0.352-20.06,0.702v0.881
	c-1.76,0-3.52,0.176-5.279,0.176c0,0,0,0-0.176,0v-0.703c-0.704-0.176-1.76-0.176-2.991-0.176c-1.76,0-3.52,0.176-4.751,0.352v0.704
	c-0.704,0-1.232,0-1.936,0c-2.112,0-4.223,0-6.511,0.176c-4.751,0.177-9.678,0.177-14.429,0.353
	c-2.464,0.177-4.751,0.353-7.039,0.353l0,0c-1.232,0-2.463,0-3.695,0s-2.288,0-3.519,0c-2.464,0-4.927,0-7.391,0.176
	c-0.88,0-1.76,0-2.64,0c-0.704,0-1.583,0-2.287,0s-1.408,0-2.112,0l0,0c-5.807,0.353-11.613,0.353-17.42,0.527
	c-9.854,0.528-19.355,0.354-29.209,0.704v0.704c-0.176,0-0.528,0-0.704,0c-5.279,0.176-10.206,0.352-15.132,0.526
	c-5.103,0.178-10.382,0-15.485,0.354l0,0c-0.352,0-0.704,0-1.232,0c-0.704,0-1.231,0-1.936,0c-0.704,0-1.408,0-2.111,0.176l0,0
	c-0.176,0-0.352,0-0.528,0c-0.176,0-0.528,0.176-0.88,0.528l0,0c-1.936,0-3.871,0.176-5.983,0.176c-1.408,0-2.991,0.353-4.223,0.353
	l0,0c-7.566,0.353-14.957,0.703-22.347,0.88l0,0c-0.352,0-0.528,0-0.88,0c-0.879,0-1.759,0-2.639,0c-0.352,0-0.704,0-1.056,0l0,0
	c-1.408,0-2.815,0.353-4.223,0.353l0,0l0,0c-1.584,0.176-3.167,0.176-4.751,0.176l0,0c-3.871,0-7.918,0.527-11.614,0.703l0,0
	c-0.704,0-1.583,0-2.463,0.354l0.176,0.526c-0.176,0-0.528,0-0.704,0c-1.056,0-1.936,0-2.991,0c-0.704,0-1.408,0-2.112,0
	c-6.51,0.528-13.197,0.881-19.708,1.232l0,0c-1.056,0-1.936,0.176-2.815,0.352l0,0c-2.815,0.177-5.455,0.177-8.271,0.704v1.057
	c-0.176,0.176-0.352,0.352-0.528,0.352l0,0l0,0c0,0-0.176,0-0.352,0h-0.176c-0.176,0-0.528,0-0.704,0
	c-0.352,0-0.704,0.354-0.879,0.528l-0.528,0.704l-0.176,0.176l0.528,0.527c-0.704,0.177-1.408,0.353-1.936,0.703l-0.352,0.177v0.176
	l0,0c0,0-0.176,0.177-0.176,0.528l0,0c0,0-0.176,0.176-0.176,0.352l-0.176,0.88h1.056l0,0c0,0,0.176,0,0.176,0.176v0.528
	l0.528,0.176c0.704,0.354,1.408,0.354,2.111,0.354c0.352,0,0.704,0,1.056,0s0.704,0,0.88,0l0,0l0,0c0,0,0,0,0.176,0.176
	c0.176,0,0.352,0.176,0.704,0.176l0,0c0.352,0,0.704,0,1.056,0c1.231,0,2.639-0.176,4.047-0.352l0,0
	c1.583-0.177,3.167-0.354,4.751-0.528l0,0c0.88,0,1.76-0.176,2.815-0.176c1.232,0,2.288,0,3.519,0c0.704,0,1.232,0,1.936,0l0,0
	c1.408,0,2.639-0.176,3.871-0.176l0,0c1.408,0,2.815,0,4.223-0.177l0,0l0,0c0.704,0,1.231-0.353,1.583-0.353l0,0l0,0
	c1.408-0.176,2.815-0.176,4.399-0.176l0,0c1.408,0,2.815-0.176,4.223-0.353l0,0c3.343-0.177,6.687-0.177,10.206-0.353l0,0
	c2.463-0.176,5.103-0.176,7.39-0.176c0.88,0,1.76-0.177,2.463-0.177l0,0c2.992-0.176,5.983-0.176,8.974-0.353
	c5.983-0.353,11.965-0.353,18.124-0.703c2.992-0.177,5.983-0.353,8.974-0.353l0,0l0,0c1.936,0,4.047,0.176,6.159,0.176
	c1.056,0,2.112,0,3.167-0.176l0,0c3.167-0.177,6.687-0.177,10.206-0.527c2.815-0.177,5.631-0.177,8.446-0.177
	c0.528,0,1.232,0,1.76,0c2.463,0,4.927,0,7.391-0.177l0,0c2.815-0.176,5.63-0.526,8.446-0.526l0,0c1.936,0,3.695,0.176,5.631,0.176
	c1.056,0,1.936,0,2.991-0.176l0,0c3.695-0.177,7.918-0.177,11.966-0.354l0,0c3.519-0.176,7.039-0.176,10.382-0.176
	c7.038,0,13.901-0.352,20.763-0.352c3.52,0,6.863-0.177,10.382-0.354l0,0c3.52-0.176,7.039,0,10.558-0.176
	c8.271-0.176,17.068-0.527,25.339-0.527c4.927,0,9.678-0.177,14.43-0.353l0,0h0.176c0.527,0,1.23,0.176,1.936,0.176h0.176l0,0l0,0
	c0.705,0,1.057-0.176,1.408-0.176c2.639-0.177,5.279-0.177,8.094-0.177c7.039,0,13.549-0.352,20.412-0.352
	c3.695,0,7.215,0,10.91-0.177l0,0c10.91-0.176,21.819-0.527,32.377-0.703c6.336-0.176,12.493-0.176,18.477-0.176
	c-0.176,0-0.176,0-0.353,0v0.352c-2.815,0.352-5.807,0.527-8.446,0.88l0,0c-1.231,0.176-2.463,0-3.694,0.176l0,0
	c-0.88,0-1.584,0.353-2.288,0.353l0,0l0,0c-0.352,0-0.704,0-0.88,0c-0.177,0-0.353,0-0.528,0c-0.352,0-0.88,0-1.232,0.177
	c-0.352,0-0.879,0.353-1.23,0.703l-0.176,0.177c-1.057,0-2.111,0.176-3.167,0.176v-0.703c-0.177,0-0.353,0-0.528,0
	c-0.704,0-1.232,0-1.936,0c-1.057,0-2.289,0-3.168,0.352h-0.879c-0.353,0-0.881,0-1.232,0s-0.879,0.177-1.408,0.528l-0.704,0.526
	c-1.936,0.178-3.87,0.354-5.631,0.704h-0.176l-0.177,0.177l-0.176,0.177c0,0,0,0,0,0.176c-1.76,0.176-3.694,0.352-5.455,0.704v1.407
	c1.231,0.176,2.463,0.352,3.871,0.352c0.881,0,1.76,0,2.64,0c1.407,0,2.991-0.176,4.399-0.176l0,0c0.879,0,1.582-0.353,2.11-0.353
	l0,0l0,0c4.399-0.353,8.798-0.703,13.373-0.703c1.937,0,3.871,0.176,5.808,0.176c0.527,0,1.231,0,1.76,0
	c2.463-0.176,4.927-0.353,7.391-0.527c2.463-0.176,5.104-0.176,7.566-0.353l0,0c2.463-0.177,4.927-0.527,7.213-0.703
	c2.64-0.177,5.279-0.177,7.918-0.354c6.336-0.526,13.374-0.704,19.885-1.056l0,0c2.111-0.176,4.223-0.176,6.51-0.353l0,0
	c1.408-0.176,2.992-0.353,4.224-0.527c0.704,0,1.231,0,1.938,0c0.527,0,1.055,0,1.582,0c0.705,0,1.408,0,2.289,0l0,0
	c2.111-0.177,4.223-0.353,6.334-0.527s4.223-0.177,6.334-0.177c1.057,0,2.111-0.353,3.168-0.353l0,0
	c2.287-0.176,4.047-0.352,5.982-0.526c1.407-0.177,2.991-0.177,4.397-0.177l0,0c1.058-0.177,2.816-0.177,4.049-0.177l0,0
	c0.879,0,1.582-0.352,2.287-0.352l0,0l0,0c1.76-0.176,3.521-0.354,4.926-0.704l0,0c0,0,0.353,0,0.529,0c0.176,0,0.527,0,0.703-0.176
	l0,0l0,0c0.176,0,0.352-0.177,0.527-0.354l0.352-0.176l0.178-0.176c0,0,0.177-0.177,0.177-0.353
	C477.48,120.539,477.305,120.363,477.128,120.188z M476.776,120.013L476.776,120.013L476.776,120.013L476.776,120.013z"/>
<g>
	<polygon fill="#4061A4" points="446.688,91.857 467.979,91.857 468.153,29.392 446.688,29.392 	"/>
	<path fill="#4061A4" d="M111.479,32.382l-21.467,4.751v8.976h-4.575v14.077h4.575V79.54c0,3.695,0.352,7.039,2.815,10.382
		c4.575,5.982,12.142,5.455,18.828,3.871c2.287-0.704,3.167-0.88,4.047-1.23V81.828c-1.056,0-3.343,0.353-4.047-1.407V60.01h4.047
		v-13.9h-4.047L111.479,32.382z"/>
	<path fill="#4061A4" d="M65.904,63.88c-4.927-0.704-9.326-0.88-13.901-1.231c-2.64-0.353-6.687-0.177-7.566-1.761l0,0l0,0
		c0-0.176-0.352-1.056,0.528-2.11c1.583-1.76,8.798-1.76,12.317,1.23h25.515c0-1.583-0.352-2.463-0.528-3.519
		c-2.64-6.862-10.03-9.502-16.188-10.734c-11.614-2.11-26.922-2.11-36.952,2.815c-4.927,2.464-7.743,5.982-8.622,12.142
		c-0.352,5.631,3.343,10.91,7.742,12.143c9.15,2.814,19.356,2.814,29.034,4.751c0,0,1.583,0.352,2.288,1.584
		c0.528,1.056-0.176,2.463-2.463,2.991c-2.815,0.526-8.798,0.703-11.965-3.345H19.628l0.528,2.641
		c4.575,14.077,24.283,14.253,32.729,14.253c8.446,0,23.403-1.057,29.386-8.622c2.815-3.521,4.223-7.742,1.936-13.901
		C81.741,67.398,70.833,64.583,65.904,63.88"/>
	<path fill="#4061A4" d="M444.049,72.325c0.176-0.527,0.176-0.879,0.176-1.407c0-0.527,0-1.056,0-1.936
		c0-8.271-3.168-14.781-9.326-19.355c-6.158-4.398-14.781-6.687-25.867-6.687c-10.381,0-18.828,2.287-24.986,6.861
		c-6.158,4.575-9.326,10.909-9.326,18.828c0,8.095,3.168,14.604,9.502,19.181c6.16,4.575,14.605,7.038,25.163,7.038
		c8.446,0,15.838-1.407,21.645-4.224c6.158-2.814,10.205-8.445,12.316-13.726h-21.818c-1.057,1.408-2.287,2.464-4.047,3.168
		c-1.76,0.703-4.225,1.056-7.215,1.056c-4.047,0-7.214-0.88-9.326-2.288c-1.583-1.23-2.64-2.99-3.167-5.277h46.103L444.049,72.325z
		 M421.174,62.473H397.77c0.527-1.761,1.584-2.991,2.992-4.048c1.936-1.407,4.927-2.11,8.621-2.11c3.87,0,7.038,0.703,8.975,2.11
		C419.766,59.306,420.645,60.712,421.174,62.473"/>
	<path fill="#4061A4" d="M362.401,50.154c-5.455-4.399-12.669-6.688-21.467-6.688c-4.575,0-8.623,0.704-11.966,1.761
		c-1.76,0.703-3.344,1.406-4.928,2.464v-2.815h-20.938v61.06h21.292V89.218c1.408,0.881,2.99,1.584,4.751,2.112
		c3.519,1.231,7.565,1.759,12.142,1.759c8.622,0,15.66-2.287,21.291-6.861c5.631-4.575,8.446-10.733,8.446-18.124
		C371.024,60.712,368.032,54.73,362.401,50.154 M348.148,68.631c0,3.167-0.88,5.454-2.991,7.214
		c-2.112,1.761-4.927,2.641-8.798,2.641c-4.047,0-7.039-0.88-9.15-2.641c-1.936-1.582-2.992-4.047-2.992-7.214
		c0-3.52,0.881-5.982,2.815-7.742c1.937-1.76,4.927-2.64,8.974-2.64s7.215,0.88,9.15,2.64
		C347.269,62.648,348.148,65.111,348.148,68.631"/>
	<path fill="#4061A4" d="M288.498,48.923c-4.751-2.64-9.151-4.047-16.893-4.047c-4.575,0-8.623,0.527-12.317,1.583
		c-2.992,0.88-5.631,2.111-8.094,3.695c-2.288-1.584-4.927-2.991-7.743-3.871c-3.519-1.056-7.742-1.584-12.493-1.584
		c-4.223,0-8.27,0.528-11.79,1.584c-1.936,0.528-4.751,1.231-6.511,2.111v-2.463h-21.115v46.806h21.467l0,0h0.352V67.223
		c0-0.353,0.176-0.527,0.176-0.88v-0.177c0-0.176,0.176-0.352,0.176-0.704c0.176-0.352,0.352-0.703,0.528-1.056
		c0.176-0.176,0.176-0.352,0.352-0.527c0.352-0.353,0.704-0.88,1.056-1.231l0,0c1.936-1.76,4.575-2.463,7.742-2.463
		c2.815,0,5.103,0.703,6.687,1.936c0.704,0.703,1.408,1.407,1.76,2.463v0.178c0.352,0.702,0.352,1.582,0.528,2.463v25.515l0,0l0,0
		h21.995l0,0l0,0l0.176-24.811c0-0.528,0.176-1.057,0.352-1.584v-0.177c0-0.176,0.176-0.352,0.176-0.704
		c0.176-0.352,0.352-0.702,0.528-1.056c0.176-0.176,0.176-0.352,0.352-0.527c0.352-0.353,0.704-0.88,1.056-1.231l0,0
		c1.936-1.76,4.575-2.463,8.094-2.463c2.991,0,5.279,0.703,6.862,1.936c0.88,0.703,1.408,1.407,1.76,2.463v0.178
		c0.176,0.352,0.352,0.879,0.352,1.406v26.746h0.176l0,0h21.292V61.241C296.239,55.961,293.601,51.738,288.498,48.923"/>
	<path fill="#4061A4" d="M162.333,46.107v23.931c0,0.704-0.176,2.287-1.056,3.695c-0.176,0.352-0.528,0.704-0.88,1.056
		c-0.352,0.354-0.88,0.704-1.408,1.057c-2.111,1.407-4.927,2.11-8.622,2.11c-3.167,0-5.455-0.526-6.862-1.759
		c-1.408-1.231-2.112-3.168-2.112-5.807V47.515l0,0v-1.407h-20.411l0.176,32.729c-0.176,4.929,2.287,8.623,6.334,11.438
		c9.854,5.982,25.515,4.751,34.84-1.584v3.871h21.644V46.107H162.333L162.333,46.107z"/>
	<path fill="#4061A4" d="M528.157,13.202c-12.315-4.927-24.986-2.64-28.856,5.279c-0.177,0.176-13.726,33.607-13.726,33.607l0,0
		l-3.168,7.919l1.937,51.732c0,0,1.057,2.815,2.286,3.344c1.058,0.527,4.048-0.704,4.048-0.704l37.479-35.721
		c0,0,16.717-41.351,16.894-41.527C547.864,28.688,540.477,18.129,528.157,13.202 M499.124,37.311l4.927,6.157l-8.798,21.645
		l-4.752-6.688L499.124,37.311z M509.857,47.339l7.742,3.167l-8.797,21.469l-7.566-3.167L509.857,47.339z M502.114,93.267
		c0,0-2.287,1.936-6.686,0.176c-4.4-1.76-4.752-4.927-4.752-4.927l-1.056-20.589c0,0,0.353,5.632,11.965,10.206
		c11.613,4.751,15.66,0.88,15.66,0.88L502.114,93.267z M523.76,71.975l-8.097,1.407l8.799-21.468l7.918-1.23L523.76,71.975z
		 M539.596,37.133c-2.463,6.159-12.67,7.919-22.523,3.872c-10.029-4.048-16.012-12.316-13.549-18.477
		c2.463-6.158,13.021-8.622,22.875-4.575C536.252,22,542.059,30.976,539.596,37.133"/>
	<path fill="#4061A4" d="M523.583,24.641c-4.928-1.937-9.678-1.407-10.733,1.056c-1.058,2.464,2.11,6.159,6.862,8.095
		c4.927,1.937,9.679,1.584,10.732-1.056C531.501,30.271,528.51,26.575,523.583,24.641"/>
	<path fill="#4061A4" d="M44.438,60.888L44.438,60.888L44.438,60.888z"/>
</g>
</svg>
